# xmcd CD database file
#
# Track frame offsets:
#	150
#	14550
#	26907
#	38492
#	51197
#	63535
#	78487
#	88810
#	100305
#	112025
#	123800
#	135837
#	149097
#	161567
#	177080
#	190572
#	204850
#	219782
#	228652
#	242695
#	256502
#	272747
#	284605
#	297202
#
# Disc length: 4126 seconds
#
# Revision: 1
# Processed by: cddbd v1.5.2PL0 Copyright (c) Steve Scherf et al.
# Submitted via: CDex 1.51
#
DISCID=55101c18
DTITLE=Muddy Waters - From Mississippi to Chicago
DYEAR=1999
DGENRE=Blues
TTITLE0=I Feel Like Going Home
TTITLE1=I Can't Be Satisfied (Looking For My Lady)
TTITLE2=Gypsy Woman
TTITLE3=Train Fare Home Blues
TTITLE4=Good Looking Woman
TTITLE5=Streamline Woman
TTITLE6=Mean Red Spider
TTITLE7=Little Anna Mae
TTITLE8=Mean Disposition
TTITLE9=Wiskey Blues (Sittin' Here And Drinking)
TTITLE10=Burying Ground Blues
TTITLE11=Down South Blues
TTITLE12=Canary Bird
TTITLE13=Country Blues No.1
TTITLE14=Take A Walk With Me
TTITLE15=Burr Clover Blues
TTITLE16=I Be Bound To Write To You
TTITLE17=You Got To Take Sick And Die Some Of These Days
TTITLE18=I Be's Troubled
TTITLE19=Rosalie
TTITLE20=Country Blues No.2
TTITLE21=Kind-Hearted Woman
TTITLE22=Jitterbug Blues
TTITLE23=Hard Day Blues
EXTD=YEAR: 1999
EXTT0=
EXTT1=
EXTT2=
EXTT3=
EXTT4=
EXTT5=
EXTT6=
EXTT7=
EXTT8=
EXTT9=
EXTT10=
EXTT11=
EXTT12=
EXTT13=
EXTT14=
EXTT15=
EXTT16=
EXTT17=
EXTT18=
EXTT19=
EXTT20=
EXTT21=
EXTT22=
EXTT23=
PLAYORDER=
